<svg width="30" height="30" viewBox="0 0 30 30" fill="none" xmlns="http://www.w3.org/2000/svg">
<g clip-path="url(#clip0_747_19484)">
<path d="M4.51125 2.2675L17.24 15L4.5125 27.7325C4.28618 27.6374 4.09304 27.4774 3.95737 27.2728C3.82169 27.0682 3.74955 26.828 3.75 26.5825V3.4175C3.7501 3.17228 3.82232 2.9325 3.95768 2.72802C4.09304 2.52354 4.28555 2.36338 4.51125 2.2675ZM18.1238 15.8838L21.0013 18.7613L7.33 26.6775L18.1238 15.8838ZM22.1225 11.8863L25.6313 13.9188C25.8207 14.0286 25.9779 14.1863 26.0872 14.3761C26.1965 14.5659 26.254 14.781 26.254 15C26.254 15.219 26.1965 15.4341 26.0872 15.6239C25.9779 15.8137 25.8207 15.9714 25.6313 16.0813L22.1213 18.1138L19.0075 15L22.1225 11.8863ZM7.33 3.3225L21.0025 11.2375L18.1238 14.1163L7.33 3.3225Z" fill="#92929D"/>
</g>
<defs>
<clipPath id="clip0_747_19484">
<rect width="30" height="30" fill="white"/>
</clipPath>
</defs>
</svg>
