<svg width="30" height="30" viewBox="0 0 30 30" fill="none" xmlns="http://www.w3.org/2000/svg">
<g clip-path="url(#clip0_747_19479)">
<path d="M14.5292 9.0275C13.4342 9.0275 11.7392 7.7825 9.95422 7.8275C7.59922 7.8575 5.43922 9.1925 4.22422 11.3075C1.77922 15.5525 3.59422 21.8225 5.97922 25.2725C7.14922 26.9525 8.52922 28.8425 10.3592 28.7825C12.1142 28.7075 12.7742 27.6425 14.9042 27.6425C17.0192 27.6425 17.6192 28.7825 19.4792 28.7375C21.3692 28.7075 22.5692 27.0275 23.7242 25.3325C25.0592 23.3825 25.6142 21.4925 25.6442 21.3875C25.5992 21.3725 21.9692 19.9775 21.9242 15.7775C21.8942 12.2675 24.7892 10.5875 24.9242 10.5125C23.2742 8.0975 20.7392 7.8275 19.8542 7.7675C17.5442 7.5875 15.6092 9.0275 14.5292 9.0275ZM18.4292 5.4875C19.4042 4.3175 20.0492 2.6825 19.8692 1.0625C18.4742 1.1225 16.7942 1.9925 15.7892 3.1625C14.8892 4.1975 14.1092 5.8625 14.3192 7.4525C15.8642 7.5725 17.4542 6.6575 18.4292 5.4875Z" fill="#92929D"/>
</g>
<defs>
<clipPath id="clip0_747_19479">
<rect width="30" height="30" fill="white"/>
</clipPath>
</defs>
</svg>
