<svg width="35" height="35" viewBox="0 0 35 35" fill="none" xmlns="http://www.w3.org/2000/svg">
<path d="M17.5 16.086L21.0355 12.5505C21.4261 12.16 22.0592 12.16 22.4497 12.5505C22.8403 12.941 22.8403 13.5742 22.4497 13.9647L18.9142 17.5002L22.4497 21.0358C22.8403 21.4263 22.8403 22.0595 22.4497 22.45C22.0592 22.8405 21.4261 22.8405 21.0355 22.45L17.5 18.9145L13.9645 22.45C13.5739 22.8405 12.9408 22.8405 12.5503 22.45C12.1597 22.0595 12.1597 21.4263 12.5503 21.0358L16.0858 17.5002L12.5503 13.9647C12.1597 13.5742 12.1597 12.941 12.5503 12.5505C12.9408 12.16 13.5739 12.16 13.9645 12.5505L17.5 16.086Z" fill="white"/>
</svg>
