<svg width="16" height="16" viewBox="0 0 16 16" fill="none" xmlns="http://www.w3.org/2000/svg">
<g clip-path="url(#clip0_418_7916)">
<path d="M6.66927 4.66732C6.66914 5.59441 6.94514 6.50054 7.46209 7.27013C7.97903 8.03972 8.71349 8.63789 9.57179 8.98836C10.4301 9.33883 11.3733 9.42572 12.2812 9.23793C13.1891 9.05014 14.0204 8.59619 14.6693 7.93398V8.00065C14.6693 11.6827 11.6846 14.6673 8.0026 14.6673C4.3206 14.6673 1.33594 11.6827 1.33594 8.00065C1.33594 4.31865 4.3206 1.33398 8.0026 1.33398H8.06927C7.6253 1.76807 7.2727 2.28663 7.03226 2.85911C6.79182 3.43158 6.6684 4.0464 6.66927 4.66732ZM2.66927 8.00065C2.66879 9.19064 3.06629 10.3466 3.79853 11.2846C4.53078 12.2226 5.55569 12.8888 6.71021 13.1772C7.86473 13.4656 9.08253 13.3595 10.1698 12.876C11.2571 12.3924 12.1515 11.5591 12.7106 10.5087C11.7156 10.7431 10.6771 10.7194 9.69382 10.4398C8.71051 10.1602 7.81494 9.63404 7.09208 8.91118C6.36922 8.18832 5.84304 7.29275 5.56346 6.30944C5.28388 5.32613 5.26018 4.28769 5.4946 3.29265C4.64099 3.74741 3.92713 4.42576 3.42944 5.25508C2.93176 6.0844 2.66899 7.03346 2.66927 8.00065Z" fill="#F5F9FD"/>
</g>
<defs>
<clipPath id="clip0_418_7916">
<rect width="16" height="16" fill="white"/>
</clipPath>
</defs>
</svg>
