<svg width="154" height="155" viewBox="0 0 154 155" fill="none" xmlns="http://www.w3.org/2000/svg">
<path d="M142.359 44.3989C141.537 42.6784 139.439 42.9011 140.338 44.6216C143.189 50.1484 145.257 56.045 146.483 62.1418C144.386 62.5181 140.638 62.9099 138.241 63.1864C136.521 51.8878 132.028 44.7522 125.814 37.5859C123.372 34.7286 133.956 31.4412 129.655 26.656C127.766 24.6614 125.71 22.8318 123.51 21.1872C121.413 19.651 119.324 20.2962 121.044 21.7172C129.908 29.0371 129.409 28.5686 127.781 30.773C125.607 33.5458 121.712 35.8654 124.185 38.7073C141.129 57.61 135.399 74.6616 138.011 74.3467C139.547 74.1624 138.833 66.781 138.534 65.2065C140.93 64.9069 144.747 64.4384 146.844 64.1619C148.38 72.8413 146.844 75.7984 148.418 75.9904C150.139 75.9904 149.187 66.7734 148.496 62.7409C147.36 56.3592 145.292 50.1792 142.359 44.3989Z" fill="#3D9CFB"/>
<path d="M104.485 142.876C95.2674 146.847 82.0255 148.79 71.9175 148.252C70.7193 148.107 70.4197 150.05 73.3384 150.273C82.9473 150.918 96.8804 148.46 103.732 145.18C105.752 144.304 105.606 142.43 104.485 142.876Z" fill="#3D9CFB"/>
<path d="M127.911 110.839C123.424 117.824 117.533 123.8 110.614 128.388C103.695 132.976 95.8974 136.077 87.7165 137.491C85.8808 137.752 86.0659 139.796 89.2074 139.135C99.374 137.171 108.883 132.681 116.859 126.078C118.502 127.952 120.337 129.78 122.173 131.546C123.548 132.86 125.092 133.19 126.513 131.769C138.894 119.142 146.483 103.672 144.555 102.198C143.956 101.752 143.519 102.274 143.358 102.72C139.536 113.231 133.307 122.7 125.169 130.371C124.4 131.139 124.4 131.324 118.256 124.826C122.579 121.022 126.358 116.641 129.485 111.806C135.1 113.826 137.873 105.216 132.558 103.357C127.842 101.706 124.546 107.543 127.911 110.839ZM128.441 106.868C129.562 103.273 134.947 105.331 133.157 108.964C131.998 111.307 127.688 109.94 128.441 106.868Z" fill="#3D9CFB"/>
<path d="M118.632 31.6333C119.754 32.5319 120.499 31.1878 119.231 29.9895C113.916 25.0507 104.069 20.4191 98.2702 18.6064C95.9659 17.7078 95.2746 19.1287 96.5497 19.6587C102.61 22.1243 107.48 24.0752 111.444 26.6176C104.108 40.9425 106.389 33.2923 117.28 46.1578C116.63 46.7968 116.183 47.6144 115.997 48.5072C115.812 49.4001 115.895 50.328 116.237 51.1735C114.739 52.2165 113.162 53.141 111.52 53.9386C110.467 52.5944 106.051 46.4574 104.254 47.3561C102.08 48.4467 110.283 51.0659 114.239 64.254C114.262 64.373 114.317 64.4832 114.4 64.5718C114.483 64.6604 114.589 64.7238 114.706 64.7548C114.823 64.786 114.946 64.7836 115.062 64.748C115.178 64.7125 115.281 64.6451 115.36 64.5536C116.259 63.7855 114.539 58.4089 112.588 55.5746C114.234 54.7724 115.825 53.8615 117.35 52.8479C117.956 53.4512 118.725 53.8647 119.563 54.038C120.4 54.2112 121.27 54.1366 122.066 53.8234C126.582 63.0405 125.768 68.2942 127.442 67.4493C129.386 66.397 124.225 53.6237 123.702 52.7788C127.143 49.4837 123.548 43.7921 119.055 45.2899C107.656 31.6102 107.02 40.7735 113.141 27.8466C115.083 28.9397 116.921 30.2071 118.632 31.6333ZM117.957 48.4007C119.163 45.2284 123.948 47.2792 122.973 50.198C121.959 53.4163 116.582 51.9646 117.957 48.4007Z" fill="#3D9CFB"/>
<path d="M135.4 81.5666C126.413 86.1291 131.66 98.1881 140.639 96.314C151.645 93.0189 146.107 77.2269 135.4 81.5666ZM138.542 82.6112C139.894 82.6112 142.812 88.08 142.435 88.6023C142.059 89.1246 139.364 90.4765 138.695 90.4765C138.027 90.4765 135.177 88.9787 134.8 88.6792C134.424 88.226 137.198 82.6112 138.542 82.6112ZM138.771 94.4398C137.796 94.5166 134.163 90.1769 134.8 90.1001C135.438 90.0233 138.096 91.5979 138.695 91.5211C139.295 91.4443 141.614 90.1769 142.359 90.1001C143.104 90.0233 139.739 94.4398 138.771 94.4398Z" fill="#3D9CFB"/>
<path d="M105.006 84.8617C105.828 88.5255 105.982 90.8528 105.774 92.8729C109.3 91.8206 107.502 83.2104 106.972 81.5666C104.353 83.8095 100.99 85.0077 97.2415 85.6836C106.605 81.5666 106.972 78.1947 107.349 76.6278C107.948 74.3235 105.752 66.5735 104.73 68.1788C101.497 73.2175 88.6005 70.9516 85.7125 74.6154C84.1763 76.9197 84.813 84.278 84.813 84.278C83.9144 81.7279 80.2053 71.4739 88.0321 71.0284C93.4087 69.7534 101.289 70.6521 103.831 65.4828C101.058 57.103 100.391 54.407 97.2415 53.1319C93.5009 51.5958 89.3832 52.0873 71.787 55.2288C63.8526 56.5039 50.5954 58.4932 48.3603 61.7422C44.7963 66.9115 51.4326 95.5843 57.9383 99.2481C62.808 101.552 73.738 99.2481 85.3438 97.228C95.4979 95.4153 104.853 94.2171 105.006 84.8617ZM89.0606 75.1224C91.5338 73.1714 94.822 75.0456 94.5225 76.6201C90.2596 75.1915 87.6089 79.0857 91.2343 81.8585C87.1173 82.3117 86.6257 77.0733 89.0606 75.1224Z" fill="#3D9CFB"/>
<path d="M42.2002 37.0254C42.0466 37.5477 41.9007 38.5232 41.7471 39.2682C43.2833 39.6446 44.2203 39.8673 44.589 39.4218C44.9654 39.1223 45.5645 37.2481 42.2002 37.0254Z" fill="#3D9CFB"/>
<path d="M6.03867 82.6881C5.33323 73.666 6.24625 64.5903 8.73467 55.8895C9.74995 56.1989 10.8422 56.137 11.816 55.7148C12.7898 55.2927 13.5817 54.5378 14.0498 53.5852C16.2927 54.2534 20.5633 56.6576 21.7308 52.9093C23.0749 48.5696 25.1718 45.4204 27.9446 41.2343C29.0583 39.6136 24.7878 38.4308 19.7107 52.9093C19.1807 54.4455 16.116 52.1412 14.5414 51.6342C14.5494 50.9765 14.4129 50.3251 14.1416 49.7259C13.8702 49.1268 13.4706 48.5945 12.971 48.1667C12.4714 47.7389 11.884 47.4259 11.2502 47.25C10.6164 47.0741 9.95169 47.0395 9.30305 47.1486C5.56245 47.5941 4.36423 52.7633 6.99878 55.0062C4.56349 63.4857 3.55124 72.3105 4.00323 81.1212C4.16453 83.8095 6.11548 83.9632 6.03867 82.6881ZM7.98194 49.9752C9.85608 47.5019 14.0422 50.244 12.2525 52.9707C10.3016 55.9202 5.97722 53.0475 7.98194 49.9752Z" fill="#3D9CFB"/>
<path d="M55.2947 115.632C50.0947 124.081 62.1076 133.075 68.621 124.534C74.6121 114.879 60.6482 106.975 55.2947 115.632ZM62.0308 125.509C60.9862 125.509 60.7635 125.287 60.7635 124.687C60.7635 121.615 60.2872 123.566 63.3058 122.967C63.3058 125.271 63.4671 125.509 62.0462 125.509H62.0308ZM67.4996 120.271C67.4996 123.113 56.7924 123.113 56.7463 120.271C56.5236 118.996 61.0169 118.474 59.7419 119.503C59.3732 119.656 57.3455 119.956 58.3209 120.478C59.4423 121.454 70.1495 120.855 64.5348 119.503C64.2352 119.434 64.1584 119.05 64.6116 118.981C65.7714 118.827 67.4228 119.295 67.4996 120.271ZM65.7791 115.662C66.4473 115.816 66.4473 116.192 66.4473 116.937C66.6009 118.474 65.0264 117.705 63.3058 117.913V120.079C62.4693 120.272 61.5999 120.272 60.7635 120.079V117.913C58.9661 117.759 57.3531 118.681 57.3915 116.861C57.3915 116.192 57.5452 115.824 58.2902 115.739C59.4193 115.647 64.8036 115.632 65.7791 115.701V115.662Z" fill="#3D9CFB"/>
<path d="M49.1591 119.449C41.6011 114.656 35.8328 107.467 31.9385 99.3867C33.5899 98.6186 37.1846 96.8366 39.5042 96.0916C39.8729 96.6907 40.3261 97.5893 40.7024 98.1884C37.1078 101.706 41.6011 107.767 45.9408 105.447C46.9854 106.269 49.4587 109.641 50.7337 109.287C52.0087 108.934 49.2359 107.267 47.3618 104.272C47.9673 103.512 48.3076 102.575 48.3309 101.604C48.3542 100.632 48.0592 99.68 47.4908 98.892C46.9227 98.1039 46.1126 97.5231 45.1838 97.238C44.2551 96.9529 43.2586 96.9792 42.3462 97.3128C40.0419 92.8425 39.4965 93.6951 31.1167 97.6815C30.3213 95.9586 29.6463 94.1826 29.0966 92.3663C28.7971 91.1681 26.8538 91.1681 27.8216 94.54C30.8171 104.871 38.0833 114.08 46.9854 120.14C48.6368 121.316 50.5263 120.348 49.1591 119.449ZM41.4782 100.508C43.0528 97.0593 48.391 99.9858 45.8179 103.204C43.9976 105.37 40.4029 103.204 41.4475 100.508H41.4782Z" fill="#3D9CFB"/>
<path d="M50.4337 38.523C47.3613 27.4395 31.9381 32.4551 34.8568 42.64C37.5528 51.9185 52.5306 48.6234 50.4337 38.523ZM46.839 39.1221C46.656 39.6318 46.397 40.1108 46.0709 40.5431C47.4996 42.4864 45.5486 45.336 42.9986 44.6601C42.8449 45.2592 42.8449 45.8583 41.9463 45.7047C41.0476 45.5511 41.424 45.0364 41.5776 44.4373C41.2408 44.3804 40.9128 44.2797 40.6021 44.1378C40.4485 44.7369 40.4485 45.336 39.5498 45.1824C38.8816 45.0364 39.0275 44.2837 39.2503 43.6846C38.8625 43.5739 38.4869 43.4247 38.1289 43.2391C37.9813 43.2029 37.8493 43.1201 37.7525 43.003C37.6557 42.8859 37.5993 42.7407 37.5915 42.5889C37.5837 42.4372 37.6251 42.2869 37.7094 42.1606C37.7938 42.0342 37.9166 41.9383 38.0597 41.8873C38.3593 41.8181 38.6588 41.9641 39.2503 42.1177C39.6266 40.6891 40.3026 37.9239 40.6021 36.5721C38.1289 36.3493 39.1811 34.552 41.2012 35.1511C41.3472 34.552 41.424 33.8761 42.3226 33.9529C43.2213 34.0297 42.8449 34.8516 42.699 35.3739C42.9217 35.4507 43.2213 35.5275 43.4671 35.6043C43.6207 35.0052 43.6975 34.1756 44.5885 34.4061C45.4795 34.6365 45.0417 35.4507 44.8189 36.0498C46.2399 36.6489 47.1386 37.7703 46.839 39.1221Z" fill="#3D9CFB"/>
<path d="M43.9204 41.0654C43.0217 40.9194 42.3458 40.7658 41.3703 40.6199C41.1475 41.4417 41.0707 42.1561 40.9248 42.6399C45.4949 44.2683 45.1493 41.3265 43.9204 41.0654Z" fill="#3D9CFB"/>
<path d="M118.255 82.0352C118.255 78.1947 116.497 78.5941 116.459 80.0919C116.198 91.1063 111.85 99.2941 103.954 106.445C102.464 107.789 104.783 108.312 105.981 107.213C109.673 103.966 112.654 99.991 114.738 95.5382C116.758 96.6596 120.207 98.5337 121.997 99.8011C119.756 103.971 117.072 107.888 113.993 111.484C112.794 112.981 115.137 113.081 116.535 111.561C120.66 107.06 123.495 101.829 125.891 96.0605C127.166 92.919 125.668 91.1908 124.992 93.1417C124.385 94.8257 123.685 96.4745 122.895 98.0806C120.875 96.6596 117.733 95.0082 115.559 93.8177C116.082 92.8729 118.332 85.9831 118.255 82.0352Z" fill="#3D9CFB"/>
<path d="M26.6226 113.527C29.2188 113.235 21.4073 109.464 16.8909 87.6194C16.7219 86.8052 16.2918 86.5748 15.8463 86.9512C14.4253 88.1494 17.49 97.5815 17.9432 99.0793C15.9922 99.7475 11.7985 101.099 9.55565 101.844C8.66999 99.1449 7.94417 96.3955 7.38196 93.6105C7.0824 91.9668 5.5155 92.7118 5.96099 94.8855C7.15921 101.698 8.65699 106.192 11.3376 110.908C12.3131 112.552 13.7878 112.114 13.2118 110.977C11.9971 108.626 10.9946 106.171 10.2162 103.642C12.6126 102.82 16.7296 101.545 18.6652 100.877C19.441 102.605 24.2262 113.834 26.6226 113.527Z" fill="#3D9CFB"/>
<path d="M90.8576 127.906C94.4523 126.562 93.3385 125.156 92.2018 125.601C89.1406 126.724 85.9422 127.429 82.6928 127.698C82.4009 125.448 81.8018 121.262 81.8018 119.011C83.5223 118.566 89.4827 118.189 90.0357 116.169C90.2585 115.347 88.9835 115.716 88.4612 115.87C80.0122 118.466 78.6219 113.673 80.8263 127.775C73.9135 128.682 70.6031 127.007 71.3942 128.597C71.8243 129.734 81.6789 131.247 90.8576 127.906Z" fill="#3D9CFB"/>
<path d="M100.89 112.037C91.5347 114.955 94.1539 129.48 104.73 127.606C115.637 124.534 110.844 109.563 100.89 112.037ZM102.31 125.094C101.934 125.763 98.8922 125.194 97.5942 122.621C96.5035 120.47 97.1487 117.083 98.3623 117.16C98.7309 117.16 98.8846 117.605 98.7309 117.982C97.6095 120.378 99.1073 123.673 101.726 124.196C102.087 124.234 102.533 124.687 102.31 125.048V125.094ZM103.846 122.997C102.725 123.443 101.542 122.621 101.75 121.876C101.767 121.789 101.804 121.706 101.857 121.634C101.91 121.562 101.978 121.503 102.056 121.46C102.134 121.417 102.221 121.391 102.31 121.385C102.399 121.378 102.488 121.391 102.571 121.423C103.393 121.576 104.745 121.2 104.215 120.447C103.685 119.695 101.227 121.5 100.375 119.779C100.156 119.377 100.096 118.908 100.207 118.464C100.318 118.02 100.591 117.634 100.974 117.383C100.451 116.484 100.751 116.184 101.051 116.031C101.504 115.808 101.872 115.662 102.326 116.86C104.146 116.399 105.344 118.665 103.147 118.35C101.903 118.151 100.505 119.672 102.771 119.119C105.39 118.443 106.965 120.839 105.075 122.414C106.204 123.566 104.407 124.464 103.885 122.967L103.846 122.997ZM103.693 114.687C104.238 113.727 107.065 114.909 108.263 117.16C109.308 119.026 109.086 122.099 107.811 122.321C107.288 122.398 106.989 122.099 107.211 121.553C107.434 120.949 107.53 120.306 107.494 119.664C107.458 119.021 107.291 118.393 107.002 117.817C106.714 117.242 106.312 116.732 105.819 116.317C105.327 115.903 104.755 115.594 104.139 115.409C103.809 115.255 103.524 115.063 103.731 114.656L103.693 114.687Z" fill="#3D9CFB"/>
<path d="M35.9316 77.0736C36.6075 77.8417 37.053 77.0736 37.053 76.5513C37.3264 67.7394 40.4531 59.2543 45.9628 52.3719C46.2624 51.9187 44.3883 51.0968 42.445 54.0924C40.35 57.3526 38.641 60.8452 37.3526 64.5C37.3526 64.5 31.8146 63.079 29.9405 62.5491C28.965 62.2495 29.0418 62.2495 29.1724 61.5044C29.8406 58.5089 32.3907 53.6392 33.4353 51.8496C34.4799 50.0599 32.8362 49.9754 31.3384 52.5178C29.2415 56.1125 26.7299 61.2817 27.498 63.1482C28.0356 64.3387 28.9266 64.2465 36.7842 66.3665C35.5322 70.5141 35.1635 76.2518 35.9316 77.0736Z" fill="#3D9CFB"/>
<path d="M43.6975 26.4642C58.9364 14.6587 63.9981 22.8619 57.8457 8.87493C57.1698 7.37716 55.2188 7.00079 56.0484 9.09768C60.8105 21.2335 59.067 13.2454 43.7589 24.0754C41.447 25.7192 42.722 27.2169 43.6975 26.4642Z" fill="#3D9CFB"/>
<path d="M20.1091 34.8514C25.5779 28.1153 30.5167 22.2778 37.2529 18.4604C39.5571 21.9014 45.4868 20.2577 45.4177 15.9103C45.3025 9.3969 35.4325 9.99601 36.431 16.7322C29.7957 20.5497 24.0941 25.7974 19.7404 32.094C18.0122 34.475 19.3641 35.7501 20.1091 34.8514ZM39.0502 14.0438C40.6555 12.0545 43.7663 13.6675 43.6587 15.9103C43.1672 20.7032 35.9702 17.8613 39.0502 14.0438Z" fill="#3D9CFB"/>
<path d="M31.0393 133.82C33.3436 135.464 33.9504 133.759 33.213 133.221C26.8727 128.519 21.4869 122.651 17.3443 115.931C16.6684 114.879 15.04 115.555 17.0447 118.85C20.6802 124.712 25.4358 129.799 31.0393 133.82Z" fill="#3D9CFB"/>
<path d="M23.8576 80.5913C33.0747 73.4097 21.8068 60.5595 13.5959 68.394C6.47571 75.1916 15.9616 86.3597 23.8576 80.5913ZM23.7808 73.1792C24.3031 73.7092 24.7563 74.1547 24.2263 74.7154C24.0035 75.015 23.4044 75.6141 22.8821 75.0918C22.3598 74.5695 21.9066 74.4159 22.283 73.8167C22.5826 73.4788 23.1049 72.5801 23.7808 73.1792ZM16.3687 71.4587C17.7897 70.2605 18.7651 68.3172 20.0402 69.4386C22.2753 71.6738 22.4981 71.8428 22.0603 72.2806C21.0848 73.7092 20.4089 72.2114 19.756 71.6123C18.8573 70.6369 17.9587 73.6324 16.9064 72.8105C16.5223 72.4342 15.7696 71.981 16.3687 71.4587ZM19.7406 75.0534C19.3643 75.3529 19.0647 75.3529 18.312 74.4543C18.0892 74.2315 18.0124 73.932 18.842 73.1792C19.2106 72.8797 19.4411 72.6569 20.3397 73.7092C20.5702 74.1547 20.6393 74.3083 19.7406 75.0534ZM15.5469 75.0534C15.0937 75.5757 14.5714 75.0534 14.2718 74.677C13.9723 74.3006 13.8263 73.9089 14.3486 73.4097C15.3932 72.3574 15.6928 73.4097 16.146 73.7092C16.5223 74.4543 16.0692 74.5311 15.5469 75.0534ZM16.3687 76.6971C15.9232 76.0288 16.5223 75.7984 16.891 75.4297C17.9433 74.8306 18.842 77.6726 19.8098 76.628C20.0402 76.5511 21.1616 74.8998 21.6071 75.4297C21.9066 75.8752 22.7285 76.1978 22.1371 76.7739C19.61 78.6941 20.1247 80.7987 16.3687 76.6971Z" fill="#3D9CFB"/>
<path d="M87.3944 15.7648C82.1187 14.7431 76.7289 14.4408 71.372 14.8662C68.2997 15.0889 68.822 16.8862 70.097 16.8094C76.1649 16.3639 82.4487 16.963 88.217 17.7081C90.4675 18.0076 90.0366 16.2871 87.3944 15.7648Z" fill="#3D9CFB"/>
<path d="M102.234 38.9687C105.452 28.3383 89.9975 24.2367 87.1172 33.8071C84.3214 43.1087 98.1938 48.7772 102.234 38.9687ZM99.6908 40.3897C99.1685 40.6201 97.7476 40.5433 97.2944 39.9442C94.3526 36.0192 93.4086 39.8136 92.0568 40.3897C91.7572 40.4665 89.5835 40.5433 90.1058 39.7906C91.012 38.5916 92.1607 37.5971 93.477 36.8718C94.4868 36.5979 95.5545 36.6246 96.5494 36.9486C97.0717 37.1714 100.735 39.9442 99.6832 40.3897H99.6908ZM92.3556 32.5321C94.8519 35.6045 95.6661 35.0438 97.9703 32.3094C98.4755 32.0462 99.0485 31.9418 99.614 32.0098C101.089 32.0098 97.6639 35.5814 95.8742 35.904C93.4317 36.3879 92.033 34.821 90.2587 32.9776C88.7225 31.6642 91.8947 31.8024 92.3556 32.5321Z" fill="#3D9CFB"/>
<path d="M106.651 11.0485C98.4941 6.9315 90.1058 4.45825 80.0054 4.45825C77.1558 4.45825 76.4876 6.17877 77.9776 6.33239C88.069 6.37261 98.0133 8.75476 107.028 13.2913C108.602 14.044 109.124 12.2467 106.651 11.0485Z" fill="#3D9CFB"/>
<path d="M79.6278 37.5476C80.5265 37.5476 81.1648 37.2558 80.75 36.5722C79.6363 34.8055 68.8907 35.6735 61.8857 38.3695C60.9103 36.649 59.159 33.1772 58.0453 31.3338C57.6843 30.727 57.8917 30.4351 58.268 30.2124C61.4095 28.3382 66.717 27.5164 69.5743 27.3628C71.2948 33.277 80.581 30.1356 78.0233 24.1445C76.3796 20.0275 69.7126 21.0721 69.413 25.4195C66.717 25.7959 57.2849 27.0632 55.9407 29.9896C55.5643 30.8115 56.0866 31.6333 56.463 32.2939C63.9672 46.757 57.9685 36.9716 79.6278 37.5476ZM72.5153 23.8449C75.9564 21.9784 78.2768 27.0632 74.9118 28.4918C72.0314 29.7592 69.7272 25.5654 72.5153 23.8449Z" fill="#3D9CFB"/>
<path d="M58.1452 145.725C54.8193 144.834 48.9972 143.966 49.5349 142.353C50.5221 139.986 51.6454 137.678 52.8991 135.441C56.8623 137.073 60.9794 138.303 65.1886 139.112C65.6341 143.605 71.9247 144.727 73.722 140.909C76.3412 135.141 67.7309 131.4 65.4881 137.315C50.8944 134.573 43.5438 127.084 42.6528 128.866C41.7618 130.648 49.9189 134.027 51.1863 134.78C45.8097 144.658 45.8096 144.942 56.6551 147.208C58.4447 147.592 59.9425 146.171 58.1452 145.725ZM67.5005 137.714C69.0751 134.573 73.4916 136.946 72.063 140.11C70.5729 142.952 66.0795 140.779 67.5005 137.714Z" fill="#3D9CFB"/>
<path d="M120.653 71.7583C113.955 72.9796 112.557 72.6263 111.896 73.7093C111.819 74.9766 114.439 74.1548 115.184 74.078C116.612 73.8552 119.454 73.4789 120.798 73.2561C124.754 72.5956 124.116 73.3483 129.04 78.6327C129.708 79.2319 130.307 80.5069 131.344 80.576C132.612 80.3533 131.714 79.1551 131.268 78.7787C129.924 77.2425 127.896 74.9382 126.551 73.4635C125.146 71.4588 122.835 71.3589 120.653 71.7583Z" fill="#001434"/>
<path d="M93.1004 73.7784C88.3843 71.7583 84.4209 78.1258 88.1615 81.5668C89.0138 82.3578 90.1243 82.8123 91.2866 82.8456C92.4489 82.879 93.5837 82.4889 94.4799 81.7481C95.0741 81.2581 95.5415 80.6321 95.8424 79.9231C96.9946 77.5267 95.42 74.7539 93.1004 73.7784ZM92.7317 81.0445C91.4567 81.5668 89.283 81.49 88.4611 79.47C87.4856 76.8508 89.8821 74.1548 92.5013 75.1994C95.1204 76.244 95.4968 79.8463 92.7701 81.0445H92.7317Z" fill="#001434"/>
<path d="M83.968 49.7754C82.2168 41.2573 82.6853 41.9562 85.6194 39.5137C86.0649 39.2141 86.0649 38.3155 85.2431 38.5459C83.7453 38.9914 81.6484 40.6428 81.5716 42.4401C81.4257 45.0593 81.948 47.0487 82.4011 49.9213C75.3577 51.0427 68.322 52.2256 61.3631 53.6619C60.2187 46.5187 60.1342 45.981 59.3431 45.2821C58.1448 44.1606 55.2875 43.5078 53.9664 43.1852C52.2382 42.7704 51.6622 42.732 51.4932 43.3311C51.209 44.8673 57.131 44.7674 58.406 46.8566C59.1741 48.124 59.2279 50.5972 59.827 54.0383C52.8681 55.4593 49.1966 56.4347 46.6542 58.7544C40.7399 64.131 43.8046 73.133 46.201 85.0307C42.6333 85.9495 39.0073 86.6244 35.3479 87.0508C33.251 87.3503 32.2756 86.3825 30.7394 85.1075C27.2215 82.0352 26.1693 80.9829 25.8006 81.2671C24.6408 82.2425 30.8162 87.3503 32.0144 88.0032C33.1122 88.6 34.3869 88.7852 35.6091 88.5255C39.2886 88.0655 42.9381 87.391 46.539 86.5054C51.3319 103.803 51.7774 105.823 69.9734 102.635C71.0718 111.269 71.1793 109.548 68.8443 112.29C68.1223 113.135 68.8443 114.088 70.4189 112.667C72.7232 110.593 72.3238 110.647 71.4712 102.336C77.2319 101.437 82.9242 100.538 88.6081 99.4862C88.6849 100.316 88.7993 100.907 89.1373 102.704C89.8055 106.291 90.0359 108.772 93.477 111.845C95.1207 113.335 96.173 112.444 95.1975 111.468L93.1006 109.371C90.7042 106.752 90.3355 100.016 90.1051 99.1866C96.0962 97.9884 102.909 97.2433 105.605 93.5027C111.443 92.7347 110.214 85.4916 109.2 81.4437C109.094 80.9817 108.943 80.5313 108.747 80.0996C110.245 78.0027 110.244 75.2299 109.868 71.5661C109.576 69.0237 109.2 62.9558 105.452 62.9558C103.585 47.2791 97.5171 47.3559 83.968 49.7754ZM94.5216 96.8593C87.3399 98.5107 80.0208 99.7012 72.6618 100.7C67.3619 101.406 61.7318 102.873 56.4166 102.236C50.5792 101.414 47.5836 83.5253 46.4315 78.2792C45.8324 72.6645 42.9904 65.7824 46.6542 60.7667C47.2533 63.6855 56.4627 62.1109 61.102 61.0663C72.8615 58.4394 81.994 56.2734 92.7703 56.0507C98.6846 56.4194 98.7614 63.1632 100.405 67.572C96.2191 69.5921 91.1889 69.2157 86.7109 70.1144C79.6752 71.6122 82.4395 79.247 83.7146 83.8171C84.9128 88.08 90.006 86.8895 93.2243 86.805C95.9761 86.5991 98.691 86.0468 101.305 85.1613C102.956 84.5622 104.161 84.6467 104.676 87.2582C106.15 94.5166 101.818 95.1772 94.5216 96.8363V96.8593ZM106.282 91.9205C106.804 89.1477 105.828 85.7066 105.452 83.0874C106.186 82.5584 106.886 81.9837 107.548 81.3669C108.224 84.4854 109.869 90.2537 106.282 91.8974V91.9205ZM105.229 64.5227C107.18 63.4013 108.301 69.9838 108.447 71.4816C108.854 75.8981 110.636 82.7188 93.1774 85.2611C90.4814 85.6298 86.3652 86.2289 85.5434 83.8325C84.1224 79.6464 81.3488 72.5339 87.1863 71.4816C92.4324 70.5061 100.59 71.2589 103.955 66.3892C104.185 65.9053 104.783 64.7224 105.229 64.4997V64.5227ZM104.461 63.2477C103.186 64.2232 102.74 65.7901 101.542 66.7655C100.267 61.3044 99.5149 55.0906 93.0015 54.4761C81.9257 54.622 72.8699 56.6421 60.2886 59.3381C50.8564 61.3582 47.2311 60.9895 49.1359 58.9617C50.7796 57.1721 56.0948 56.3426 60.1426 55.5207C60.2886 56.4194 60.665 58.5931 61.4868 57.825C62.0091 57.3795 61.8632 56.8572 61.6404 55.2058C68.5993 53.7848 75.635 52.5866 82.6707 51.4652C82.9703 53.4084 83.054 53.9231 83.4995 54.0844C84.475 54.4377 84.2684 52.3638 84.1685 51.2424C98.1478 49.0764 101.265 48.2392 104.484 63.2246L104.461 63.2477Z" fill="#001434"/>
</svg>
