<svg width="32" height="31" viewBox="0 0 32 31" fill="none" xmlns="http://www.w3.org/2000/svg">
<path d="M5 25H19V18.031C19 14.148 15.866 11 12 11C8.134 11 5 14.148 5 18.031V25ZM12 9C16.97 9 21 13.043 21 18.031V27H3V18.031C3 13.043 7.03 9 12 9ZM9.5 28H14.5C14.5 28.663 14.2366 29.2989 13.7678 29.7678C13.2989 30.2366 12.663 30.5 12 30.5C11.337 30.5 10.7011 30.2366 10.2322 29.7678C9.76339 29.2989 9.5 28.663 9.5 28Z" fill="white"/>
<path d="M12 10C12 6.26154 12 4.3923 12.8038 3C13.3305 2.08788 14.0879 1.33046 15 0.803847C16.3923 0 18.2615 0 22 0C25.7385 0 27.6077 0 29 0.803847C29.9121 1.33046 30.6695 2.08788 31.1962 3C32 4.3923 32 6.26154 32 10C32 13.7385 32 15.6077 31.1962 17C30.6695 17.9121 29.9121 18.6695 29 19.1962C27.6077 20 25.7385 20 22 20C18.2615 20 16.3923 20 15 19.1962C14.0879 18.6695 13.3305 17.9121 12.8038 17C12 15.6077 12 13.7385 12 10Z" fill="#FF3E46"/>
<path d="M25.1642 12.3066C25.1642 12.9128 25.0229 13.4277 24.7403 13.8516C24.4623 14.2708 24.0841 14.5898 23.6056 14.8086C23.1316 15.0273 22.5961 15.1367 21.9991 15.1367C21.4021 15.1367 20.8644 15.0273 20.3859 14.8086C19.9073 14.5898 19.5291 14.2708 19.2511 13.8516C18.9731 13.4277 18.8341 12.9128 18.8341 12.3066C18.8341 11.9102 18.9093 11.5479 19.0597 11.2197C19.2146 10.887 19.4311 10.5977 19.7091 10.3516C19.9916 10.1055 20.3243 9.91634 20.7071 9.78418C21.0945 9.64746 21.5206 9.5791 21.9855 9.5791C22.5961 9.5791 23.1407 9.69759 23.6192 9.93457C24.0978 10.167 24.4737 10.4883 24.7472 10.8984C25.0252 11.3086 25.1642 11.778 25.1642 12.3066ZM23.8927 12.2793C23.8927 11.9102 23.8129 11.5843 23.6534 11.3018C23.4939 11.0146 23.2706 10.7913 22.9835 10.6318C22.6964 10.4723 22.3637 10.3926 21.9855 10.3926C21.5981 10.3926 21.2631 10.4723 20.9806 10.6318C20.7026 10.7913 20.4861 11.0146 20.3312 11.3018C20.1762 11.5843 20.0987 11.9102 20.0987 12.2793C20.0987 12.6621 20.1739 12.9902 20.3243 13.2637C20.4793 13.5326 20.698 13.7399 20.9806 13.8857C21.2677 14.027 21.6072 14.0977 21.9991 14.0977C22.3911 14.0977 22.7283 14.027 23.0109 13.8857C23.2934 13.7399 23.5099 13.5326 23.6603 13.2637C23.8152 12.9902 23.8927 12.6621 23.8927 12.2793ZM24.9317 7.6377C24.9317 8.12077 24.8041 8.55599 24.5489 8.94336C24.2937 9.33073 23.9451 9.63607 23.503 9.85938C23.061 10.0827 22.5597 10.1943 21.9991 10.1943C21.4295 10.1943 20.9213 10.0827 20.4747 9.85938C20.0327 9.63607 19.6863 9.33073 19.4357 8.94336C19.185 8.55599 19.0597 8.12077 19.0597 7.6377C19.0597 7.05892 19.185 6.56673 19.4357 6.16113C19.6909 5.75553 20.0395 5.44564 20.4816 5.23145C20.9236 5.01725 21.4272 4.91016 21.9923 4.91016C22.562 4.91016 23.0678 5.01725 23.5099 5.23145C23.9519 5.44564 24.2983 5.75553 24.5489 6.16113C24.8041 6.56673 24.9317 7.05892 24.9317 7.6377ZM23.6671 7.6582C23.6671 7.32552 23.5965 7.03158 23.4552 6.77637C23.3139 6.52116 23.1179 6.32064 22.8673 6.1748C22.6166 6.02441 22.325 5.94922 21.9923 5.94922C21.6596 5.94922 21.3679 6.01986 21.1173 6.16113C20.8712 6.29785 20.6775 6.49382 20.5362 6.74902C20.3995 7.00423 20.3312 7.30729 20.3312 7.6582C20.3312 8 20.3995 8.2985 20.5362 8.55371C20.6775 8.80892 20.8735 9.00716 21.1241 9.14844C21.3748 9.28971 21.6664 9.36035 21.9991 9.36035C22.3318 9.36035 22.6212 9.28971 22.8673 9.14844C23.1179 9.00716 23.3139 8.80892 23.4552 8.55371C23.5965 8.2985 23.6671 8 23.6671 7.6582Z" fill="white"/>
</svg>
