<svg width="32" height="32" viewBox="0 0 32 32" fill="none" xmlns="http://www.w3.org/2000/svg">
<g clip-path="url(#clip0_301_2475)">
<circle cx="16" cy="16" r="16" fill="white"/>
<path d="M9.8996 18.0965L10.5686 13.0698L4.76562 9.04136L10.0678 10.8374L11.3199 8.91614L15.8922 6.07904L25.9706 11.6316L26.4929 20.1036L22.0029 26.343L18.4538 26.8868L20.2892 23.5274V20.2932L18.9547 17.7673L17.5988 16.8693L15.513 19.0195V21.2949L13.8851 22.819L11.8172 23.0695L10.9014 23.5882L9.39872 23.1088L8.77263 20.8549L9.8996 19.27V18.0965Z" fill="white"/>
<path d="M19.1658 8.99841C18.0603 8.76944 16.851 8.83026 16.851 8.83026C16.851 8.83026 16.4539 10.6656 13.9924 11.1486C14.0103 11.1486 17.2445 12.2541 19.1658 8.99841Z" fill="#94A6C3"/>
<path d="M20.1675 25.6525C21.5019 24.6078 22.5037 23.1696 22.9652 21.5418C22.9867 21.481 23.1727 21.3736 23.2979 21.2913C23.5055 21.1661 23.7165 21.0624 23.7559 20.8942C23.8382 20.4148 23.8811 19.9139 23.8811 19.413C23.8811 19.227 23.6915 19.0374 23.5055 18.8514C23.3588 18.7261 23.2121 18.5795 23.2121 18.4757C23.0046 16.5759 22.128 14.8014 20.7292 13.5099L20.5825 13.6566C21.9384 14.9302 22.815 16.6618 23.0046 18.4972C23.026 18.6653 23.1906 18.8299 23.3588 18.998C23.5055 19.1233 23.6736 19.3129 23.6736 19.3952C23.6736 19.8746 23.6307 20.354 23.5484 20.8334C23.5269 20.9157 23.3409 21.0015 23.1942 21.0838C22.9867 21.1876 22.7971 21.2913 22.7577 21.4595C22.2568 23.234 21.1084 24.7796 19.5843 25.7813C19.8562 25.1982 20.7113 23.2984 21.1692 22.336L21.0869 19.2485L18.4359 16.6833L16.9332 16.8908L15.2839 19.5633C15.2839 19.5633 16.0567 20.5436 14.9691 21.692C13.9065 22.819 13.0693 23.0694 13.0693 23.0694L12.2966 22.6509C12.5255 22.3575 12.9871 21.921 13.3413 21.6276C13.9459 21.1268 14.5505 21.0838 14.5505 20.5436C14.5756 19.413 13.3627 19.7243 13.3627 19.7243L12.9227 20.1429L12.7366 21.6885L11.8207 22.8369L11.717 22.8154L10.2144 22.4827C10.2144 22.4827 11.1338 22.0033 11.2805 21.4595C11.4272 20.9371 10.9871 19.2055 10.9657 19.1018C10.9871 19.1233 11.4057 19.4774 11.5918 20.0606C11.9245 19.1411 12.3645 18.2646 12.4898 18.1823C12.615 18.1 14.3036 17.202 14.3036 17.202L13.742 18.6832L14.1605 18.4542L15.1623 15.9928C15.1623 15.9928 16.1426 15.5134 16.8724 15.5134C18.1854 15.4919 20.1281 13.8855 19.2516 11.0055C19.502 11.1092 23.8418 13.2809 24.5931 17.5383C25.1548 20.8119 23.2979 23.878 20.1675 25.6525Z" fill="#94A6C3"/>
<path d="M15.2016 9.45637C15.681 8.8911 15.495 8.0575 15.495 8.0575L14.0961 10.1254C14.0746 10.1254 14.5934 10.1469 15.2016 9.45637Z" fill="#1B314F"/>
<path d="M10.5042 20.7475L10.6723 19.9139C10.6723 19.9139 9.98184 21.1231 9.92102 21.2913C9.85662 21.4809 9.96395 21.8136 10.2323 21.7922C10.5042 21.7707 10.8369 21.3736 10.8369 21.0838C10.8369 20.7081 10.5042 20.7475 10.5042 20.7475Z" fill="#1B314F"/>
<path d="M23.2048 7.12152C23.2048 7.12152 24.266 7.16515 25.3672 7.2924C22.885 5.34002 20.5337 4.76922 18.6258 4.76922C15.9982 4.76922 14.2175 5.85266 14.1084 5.91447L14.937 4.59834C14.937 4.59834 11.6299 4.27839 10.4633 7.77959C10.1653 7.0379 9.89276 5.95446 9.89276 5.95446C9.89276 5.95446 8.17378 7.46328 8.98057 9.96465C7.0072 9.24478 4.19069 8.24496 4.08166 8.22678C3.93266 8.20497 3.88905 8.27041 3.88905 8.27041C3.88905 8.27041 3.84544 8.33222 3.97264 8.44129C4.20886 8.62671 8.66076 11.917 9.63836 12.5533C9.42758 13.3168 9.42758 13.6767 9.63836 14.0367C9.93637 14.5238 9.95454 14.7783 9.91456 15.1383C9.87095 15.4982 9.48936 18.6177 9.40577 18.9994C9.32219 19.3812 8.43181 20.7373 8.47178 21.1408C8.51539 21.5444 9.06416 23.2605 9.55478 23.4531C9.91456 23.5804 10.8049 23.8567 11.3973 23.8567C11.6081 23.8567 11.8007 23.8131 11.8843 23.7295C12.2441 23.4132 12.3495 23.3477 12.6039 23.3477C12.6257 23.3477 12.6475 23.3477 12.6657 23.3477C12.771 23.3477 12.8982 23.3695 13.0472 23.3695C13.3852 23.3695 13.8322 23.3041 14.1484 23.0096C14.6136 22.5442 15.4204 21.908 15.6748 21.6098C15.9946 21.2063 16.1618 20.6573 16.0782 20.1047C16.0128 19.5957 16.289 19.1485 16.6088 18.7049C17.0122 18.1741 17.7535 17.2215 17.7535 17.2215C19.2181 18.3195 20.1303 19.9956 20.1303 21.8607C20.1303 25.1692 17.2484 27.8415 13.6869 27.8415C13.1345 27.8415 12.6075 27.7796 12.0769 27.6524C13.7087 28.2232 15.086 28.4159 16.2126 28.4159C18.6076 28.4159 19.8796 27.547 19.8796 27.547C19.8796 27.547 19.4362 28.1214 18.713 28.7758C18.7348 28.7758 18.7348 28.7758 18.7348 28.7758C22.6997 28.2232 24.6295 24.9583 24.6295 24.9583C24.6295 24.9583 24.4805 26.02 24.2915 26.7398C29.5647 22.7733 28.6743 17.8105 28.6525 17.6433C28.6961 17.7051 29.2267 18.3413 29.4993 18.6831C30.3497 9.94284 23.2048 7.12152 23.2048 7.12152ZM15.086 21.079C15.0024 21.1845 14.6427 21.5044 14.3883 21.7371C14.1339 21.9698 13.8577 22.2025 13.6469 22.417C13.5633 22.5006 13.3925 22.5442 13.1381 22.5442C13.0545 22.5442 12.9673 22.5442 12.9055 22.5442C12.8619 22.5442 12.8219 22.5442 12.7783 22.5442C12.7347 22.5442 12.7129 22.5442 12.6947 22.5442C12.6293 22.5442 12.5675 22.5442 12.5021 22.5442C12.8219 22.1188 13.7523 21.1445 14.0721 20.9336C14.4537 20.6791 14.6463 20.4246 14.4101 19.981C14.1775 19.5338 13.5633 19.6429 13.5633 19.6429C13.5633 19.6429 13.9231 19.4939 14.2429 19.4939C13.8395 19.3884 13.3307 19.4939 13.0981 19.7265C12.8437 19.9592 12.8873 20.7882 12.7819 21.3153C12.6766 21.868 12.3168 22.1443 11.7644 22.6533C11.4664 22.9296 11.2556 23.0132 11.0848 23.0132C10.725 22.9514 10.2998 22.8424 10.0018 22.7369C9.791 22.4606 9.47119 21.548 9.3876 21.1663C9.44938 20.9554 9.70378 20.5082 9.83098 20.2537C10.0854 19.7665 10.2344 19.4902 10.278 19.2357C10.3616 18.8758 10.6378 16.6471 10.7432 15.7164C11.0194 16.0763 11.401 16.6725 11.3137 17.0543C11.9279 16.1854 11.4845 15.3346 11.2701 14.9965C11.0811 14.6584 10.8267 13.9785 11.0375 13.2586C11.2483 12.5387 12.0115 10.5427 12.0115 10.5427C12.0115 10.5427 12.2659 10.9899 12.6257 10.9027C12.9855 10.819 15.8892 6.44892 15.8892 6.44892C15.8892 6.44892 16.6742 8.16497 15.8456 9.41929C14.9988 10.67 14.1702 10.9027 14.1702 10.9027C14.1702 10.9027 15.3368 11.1135 16.4162 10.3282C16.8595 11.368 17.2847 12.4478 17.3065 12.5969C17.2411 12.746 16.3943 14.782 16.3108 14.9092C16.2672 14.9529 15.9728 15.0365 15.7584 15.0801C15.3986 15.1855 15.1878 15.251 15.1006 15.3128C14.9516 15.44 14.272 17.3052 13.9558 18.2177C13.5742 18.3232 13.1926 18.5377 12.9164 18.9594C13.0654 18.854 13.5306 18.7885 13.8722 18.7485C14.1702 18.7267 15.0788 19.2139 15.315 20.1265C15.315 20.1483 15.315 20.1483 15.315 20.1701C15.3622 20.5046 15.2568 20.8245 15.086 21.079ZM13.0945 21.3335C13.2871 21.0572 13.2653 20.5918 13.2871 20.4428C13.3089 20.2937 13.3489 20.0174 13.5197 19.9774C13.6905 19.9338 14.0939 19.9992 14.0939 20.2937C14.0939 20.57 13.7959 20.6318 13.5851 20.8245C13.4325 20.97 13.1345 21.2899 13.0945 21.3335ZM21.5513 17.2797C21.7621 16.1999 21.7839 15.2655 21.7221 14.502C22.5471 15.6036 23.0558 16.9416 23.2048 18.3195C23.2267 18.4904 23.3938 18.6576 23.5646 18.8285C23.7136 18.9558 23.8844 19.1267 23.8844 19.2321C23.8844 19.7193 23.8408 20.2065 23.7572 20.6973C23.7354 20.7591 23.5465 20.8682 23.3975 20.9518C23.1867 21.0572 22.9941 21.1627 22.9541 21.3335C22.4889 22.966 21.4895 24.4093 20.1558 25.4273C22.1255 23.3695 23.0777 19.9738 21.5513 17.2797ZM20.2175 25.6164C21.5949 24.5548 22.6561 23.0714 23.1213 21.3953C23.1431 21.3335 23.332 21.2245 23.4592 21.1408C23.67 21.0354 23.8844 20.9081 23.9244 20.7373C24.008 20.2501 24.0516 19.7411 24.0516 19.2321C24.0516 19.043 23.859 18.8503 23.67 18.6613C23.5646 18.534 23.3938 18.385 23.3938 18.2795C23.223 16.7307 22.6088 15.2692 21.6567 14.0585C21.2315 11.5135 19.5379 10.7282 19.4943 10.7063C19.5379 10.7718 20.6391 12.3606 19.8759 14.2257C19.0909 16.1126 17.0776 15.8182 16.9068 15.8363C16.736 15.8363 16.0818 16.6835 15.2532 18.2541C15.1478 18.2105 14.7008 18.105 14.192 18.1923C14.5736 17.1306 15.1478 15.6255 15.2532 15.4982C15.2968 15.4546 15.613 15.371 15.8274 15.3092C16.2308 15.2037 16.4198 15.1383 16.4852 15.0547C16.5288 14.9892 16.7396 14.502 16.9504 13.993C17.143 13.993 17.63 13.9494 17.67 13.9276C17.7136 13.884 18.117 12.8478 18.117 12.7205C18.117 12.6151 17.2884 10.5573 16.9722 9.77196C17.1212 9.60108 17.2702 9.39021 17.4156 9.15752C21.7621 9.62653 25.1564 13.3168 25.1564 17.7887C25.1564 21.2245 23.1431 24.2167 20.2175 25.6164Z" fill="#1B314F"/>
<path d="M14.4074 14.4043C14.8045 13.9464 14.597 13.0913 13.8636 12.9446C14.0532 12.5081 14.3215 11.6316 14.3215 11.6316C14.3215 11.6316 12.1928 14.9696 12.0068 15.034C11.8172 15.0984 11.6311 14.3649 11.6311 14.3649C11.234 15.889 12.3001 16.0965 12.4254 15.6171C13.0085 15.4669 14.0103 14.8408 14.4074 14.4043Z" fill="#1B314F"/>
<path d="M12.5898 15.2164L13.6739 13.3596C13.6739 13.3596 14.3 13.6745 13.9851 14.1753C13.5916 14.7585 12.5898 15.2164 12.5898 15.2164Z" fill="#FFD923"/>
<path d="M26.0098 23.8172C25.695 24.2358 25.3408 24.6722 24.9258 25.0908C27.6162 19.9139 25.051 15.1771 24.9472 14.991C25.1369 15.1806 25.3229 15.3882 25.4911 15.5742C27.5554 17.8675 27.8058 21.3128 26.0098 23.8172Z" fill="#D82122"/>
<path d="M28.5141 17.1591C27.5731 14.6332 26.2386 12.483 23.2978 10.5439C20.4607 8.66566 17.4125 8.81234 17.2443 8.83381C17.2229 8.83381 17.2014 8.83381 17.2014 8.83381C17.3052 8.79088 17.4089 8.76941 17.5127 8.75152C18.1602 8.54402 18.9938 8.37587 19.831 8.27211C22.0456 7.9537 24.2781 8.70501 25.8022 10.315C25.8236 10.3364 25.8236 10.3364 25.8451 10.3579C27.5767 12.1933 28.4747 14.4865 28.5141 17.1591Z" fill="#D82122"/>
<path d="M22.6288 6.82673C19.5198 6.24357 17.5163 6.53336 16.0745 7.07717C16.0316 6.90902 15.8849 6.57629 15.7597 6.30439C15.3268 6.82673 14.8652 7.45283 14.5755 7.84995C13.7812 8.39376 13.4485 8.9161 13.4485 8.9161C13.9064 7.34907 15.2445 6.18275 16.8723 5.88938C17.3303 5.80709 17.8311 5.76416 18.375 5.76416C19.8132 5.78563 21.2514 6.13982 22.6288 6.82673Z" fill="#D82122"/>
<path d="M11.1301 10.8338C8.69009 10.7515 9.50223 7.91079 9.54516 7.74622C9.54516 7.76768 9.70973 9.97869 11.1301 10.8338Z" fill="#D82122"/>
<path d="M13.5308 5.72125C11.6525 6.84822 12.0282 9.53864 12.0282 9.53864C10.2322 6.80887 13.3841 5.78565 13.5308 5.72125Z" fill="#D82122"/>
<path d="M10.4434 11.5851C10.5686 11.6888 10.6938 11.8784 10.5471 12.1503C10.4649 12.297 10.3396 12.2756 10.15 12.1933C9.89959 12.068 8.39696 11.1915 7.04102 10.2935C8.58658 10.8373 10.15 11.4205 10.4005 11.5457C10.4005 11.5457 10.4219 11.5672 10.4434 11.5851Z" fill="white"/>
</g>
<defs>
<clipPath id="clip0_301_2475">
<rect width="32" height="32" fill="white"/>
</clipPath>
</defs>
</svg>
