<svg width="24" height="24" viewBox="0 0 24 24" fill="none" xmlns="http://www.w3.org/2000/svg">
<g clip-path="url(#clip0_430_7633)">
<path d="M3.33737 16.9998C2.91465 16.2688 2.58604 15.4873 2.35938 14.6738C2.85268 14.4229 3.26697 14.0404 3.5564 13.5687C3.84584 13.097 3.99914 12.5544 3.99935 12.0009C3.99955 11.4475 3.84666 10.9048 3.55758 10.4328C3.2685 9.96088 2.85449 9.57809 2.36138 9.32682C2.81341 7.69231 3.6741 6.19977 4.86237 4.98982C5.32647 5.29155 5.86499 5.45898 6.41835 5.4736C6.97171 5.48822 7.51833 5.34945 7.9977 5.07265C8.47708 4.79586 8.87053 4.39182 9.1345 3.90526C9.39848 3.41871 9.52268 2.8686 9.49338 2.31582C11.1355 1.89145 12.8586 1.89213 14.5004 2.31782C14.4713 2.87059 14.5958 3.42061 14.86 3.90703C15.1241 4.39345 15.5177 4.7973 15.9972 5.07388C16.4767 5.35047 17.0233 5.48901 17.5766 5.47417C18.13 5.45934 18.6684 5.2917 19.1324 4.98982C19.7114 5.57982 20.2254 6.25082 20.6574 6.99982C21.0904 7.74882 21.4144 8.52982 21.6354 9.32582C21.1421 9.57672 20.7278 9.9592 20.4383 10.4309C20.1489 10.9027 19.9956 11.4453 19.9954 11.9987C19.9952 12.5522 20.1481 13.0949 20.4372 13.5668C20.7263 14.0388 21.1403 14.4216 21.6334 14.6728C21.1813 16.3073 20.3206 17.7999 19.1324 19.0098C18.6683 18.7081 18.1298 18.5407 17.5764 18.526C17.023 18.5114 16.4764 18.6502 15.997 18.927C15.5177 19.2038 15.1242 19.6078 14.8602 20.0944C14.5963 20.5809 14.4721 21.131 14.5014 21.6838C12.8593 22.1082 11.1361 22.1075 9.49437 21.6818C9.52342 21.1291 9.39897 20.579 9.1348 20.0926C8.87062 19.6062 8.47702 19.2023 7.99755 18.9258C7.51808 18.6492 6.97143 18.5106 6.4181 18.5255C5.86477 18.5403 5.32634 18.7079 4.86237 19.0098C4.27137 18.4068 3.75897 17.7314 3.33737 16.9998ZM8.99738 17.1958C10.063 17.8105 10.8642 18.7968 11.2474 19.9658C11.7464 20.0128 12.2474 20.0138 12.7464 19.9668C13.1298 18.7977 13.9314 17.8113 14.9974 17.1968C16.0626 16.5805 17.3179 16.3793 18.5224 16.6318C18.8124 16.2238 19.0624 15.7888 19.2704 15.3338C18.4498 14.4173 17.9965 13.23 17.9974 11.9998C17.9974 10.7398 18.4674 9.56282 19.2704 8.66582C19.0609 8.21097 18.8098 7.77646 18.5204 7.36782C17.3167 7.62013 16.0622 7.4193 14.9974 6.80382C13.9317 6.18919 13.1305 5.20281 12.7474 4.03382C12.2484 3.98682 11.7474 3.98582 11.2484 4.03282C10.865 5.20197 10.0634 6.18838 8.99738 6.80282C7.93216 7.41914 6.67685 7.62034 5.47237 7.36782C5.18294 7.77611 4.93251 8.21069 4.72438 8.66582C5.54495 9.58238 5.99826 10.7696 5.99738 11.9998C5.99738 13.2598 5.52738 14.4368 4.72438 15.3338C4.93385 15.7887 5.18491 16.2232 5.47438 16.6318C6.67809 16.3795 7.93258 16.5803 8.99738 17.1958ZM11.9974 14.9998C11.2017 14.9998 10.4387 14.6838 9.87605 14.1211C9.31345 13.5585 8.99738 12.7955 8.99738 11.9998C8.99738 11.2042 9.31345 10.4411 9.87605 9.8785C10.4387 9.31589 11.2017 8.99982 11.9974 8.99982C12.793 8.99982 13.5561 9.31589 14.1187 9.8785C14.6813 10.4411 14.9974 11.2042 14.9974 11.9998C14.9974 12.7955 14.6813 13.5585 14.1187 14.1211C13.5561 14.6838 12.793 14.9998 11.9974 14.9998ZM11.9974 12.9998C12.2626 12.9998 12.5169 12.8945 12.7045 12.7069C12.892 12.5194 12.9974 12.265 12.9974 11.9998C12.9974 11.7346 12.892 11.4803 12.7045 11.2927C12.5169 11.1052 12.2626 10.9998 11.9974 10.9998C11.7322 10.9998 11.4778 11.1052 11.2903 11.2927C11.1027 11.4803 10.9974 11.7346 10.9974 11.9998C10.9974 12.265 11.1027 12.5194 11.2903 12.7069C11.4778 12.8945 11.7322 12.9998 11.9974 12.9998Z" fill="#F0F4F7"/>
</g>
<defs>
<clipPath id="clip0_430_7633">
<rect width="24" height="24" fill="white"/>
</clipPath>
</defs>
</svg>
