<svg width="36" height="28" viewBox="0 0 36 28" fill="none" xmlns="http://www.w3.org/2000/svg">
<path fill-rule="evenodd" clip-rule="evenodd" d="M17.9915 20.8133L35.9115 19.9666L17.9915 19.1196L0.0637207 19.9666L17.9915 20.8133Z" fill="#8817D1"/>
<path fill-rule="evenodd" clip-rule="evenodd" d="M17.9894 23.9157L30.2642 23.2102L17.9894 22.5044L5.70703 23.2102L17.9894 23.9157Z" fill="#8817D1"/>
<path fill-rule="evenodd" clip-rule="evenodd" d="M17.9905 27.0181L24.0554 26.3124L17.9905 25.6068L11.918 26.3124L17.9905 27.0181Z" fill="#8817D1"/>
<path fill-rule="evenodd" clip-rule="evenodd" d="M36 16.7592V16.7294C35.9986 16.1056 35.9558 15.5075 35.877 14.9092L35.6657 13.7176C35.4855 12.9051 35.2359 12.1156 34.9202 11.3539L34.6503 10.7041L34.2711 9.9916C33.497 8.5596 32.4852 7.24783 31.2795 6.09473L18.8865 5.62439L30.2567 5.19322C27.0432 2.57665 22.7357 0.981689 17.9999 0.981689C14.1514 0.981689 10.5853 2.03518 7.65926 3.8343L18.8865 4.26022L6.32814 4.73701C5.28488 5.51502 4.34476 6.3953 3.52828 7.36149L3.01782 7.97699L2.5563 8.68991C1.89975 9.60164 1.37471 10.5898 0.969766 11.6275L0.776792 12.1895L0.547583 12.8726C0.190818 14.1159 0 15.4264 0 16.7592H35.9998H36Z" fill="url(#paint0_linear_607_324)"/>
<path d="M23.639 9.72782C25.7004 8.60964 27.1932 8.19076 29.5741 8.82542C31.9547 9.46002 32.1474 13.9709 33.1463 15.9049C31.7273 14.1557 30.915 10.8135 28.4329 10.6615C25.9504 10.5098 23.4387 11.3774 21.8317 12.9416C22.2102 13.2468 22.5888 13.5519 22.9671 13.8568C19.7695 15.7089 15.4453 16.125 11.748 14.9365C13.076 14.7962 14.3395 14.3104 15.3243 13.5615C13.8299 11.371 10.3383 10.7113 7.43358 11.1556C4.52854 11.6001 4.41473 15.1766 1.62109 15.9577C4.02631 13.221 5.27126 9.77017 8.87747 8.74316C10.2627 8.34833 10.9959 8.27774 12.3463 8.8035C13.976 9.43849 16.2463 11.7138 18.0072 11.9625C19.5753 12.1844 22.322 10.4424 23.6391 9.72782H23.639Z" fill="black"/>
<defs>
<linearGradient id="paint0_linear_607_324" x1="17.9999" y1="16.7593" x2="17.9999" y2="0.981419" gradientUnits="userSpaceOnUse">
<stop stop-color="#9900CC"/>
<stop offset="1" stop-color="#00CCFF"/>
</linearGradient>
</defs>
</svg>
